<svg xmlns="http://www.w3.org/2000/svg" xmlns:xlink="http://www.w3.org/1999/xlink" width="500" zoomAndPan="magnify" viewBox="0 0 375 374.999991" height="500" preserveAspectRatio="xMidYMid meet" version="1.0"><defs><clipPath id="8a83b3fc5d"><path d="M 84.839844 197.691406 L 290.160156 197.691406 L 290.160156 235.996094 L 84.839844 235.996094 Z M 84.839844 197.691406 " clip-rule="nonzero"/></clipPath><clipPath id="f294184bec"><path d="M 72.519531 125.417969 L 110.300781 125.417969 L 110.300781 204.261719 L 72.519531 204.261719 Z M 72.519531 125.417969 " clip-rule="nonzero"/></clipPath><clipPath id="e4fb4cf172"><path d="M 259.226562 136.09375 L 297.003906 136.09375 L 297.003906 204.261719 L 259.226562 204.261719 Z M 259.226562 136.09375 " clip-rule="nonzero"/></clipPath><clipPath id="3b2eb75c25"><path d="M 1 131.25 L 375 131.25 L 375 243.75 L 1 243.75 Z M 1 131.25 " clip-rule="nonzero"/></clipPath></defs><rect x="-37.5" width="450" fill="#ffffff" y="-37.499999" height="449.999989" fill-opacity="1"/><rect x="-37.5" width="450" fill="#ffffff" y="-37.499999" height="449.999989" fill-opacity="1"/><g clip-path="url(#8a83b3fc5d)"><path fill="#ffffff" d="M 84.839844 197.691406 L 290.128906 197.691406 L 290.128906 235.996094 L 84.839844 235.996094 Z M 84.839844 197.691406 " fill-opacity="1" fill-rule="nonzero"/></g><g clip-path="url(#f294184bec)"><path fill="#ffffff" d="M 72.519531 125.417969 L 110.300781 125.417969 L 110.300781 204.222656 L 72.519531 204.222656 Z M 72.519531 125.417969 " fill-opacity="1" fill-rule="nonzero"/></g><g clip-path="url(#e4fb4cf172)"><path fill="#ffffff" d="M 259.226562 136.09375 L 297.003906 136.09375 L 297.003906 204.273438 L 259.226562 204.273438 Z M 259.226562 136.09375 " fill-opacity="1" fill-rule="nonzero"/></g><g clip-path="url(#3b2eb75c25)"><path fill="#040327" d="M 307.503906 239.429688 C 319.179688 240.054688 330.871094 240.140625 342.984375 241.226562 C 341.457031 242.074219 340.207031 241.972656 339.003906 242.003906 C 305.285156 243.15625 271.554688 243.734375 237.804688 243.699219 C 184.230469 243.648438 130.65625 243.765625 77.066406 243.53125 C 54.058594 243.429688 31.050781 242.96875 8.058594 242.054688 C 7.261719 242.023438 6.414062 242.15625 5.722656 241.496094 C 17.359375 240.53125 29 239.9375 40.675781 239.785156 C 40.777344 238.988281 40.082031 239.125 39.707031 238.9375 C 34.371094 236.480469 30.152344 232.738281 26.984375 227.824219 C 26.375 226.875 25.628906 226.316406 24.578125 225.941406 C 19.070312 223.996094 13.699219 221.691406 8.464844 219.0625 C 7.464844 218.554688 6.449219 218.046875 5.519531 217.4375 C 4.179688 216.574219 2.382812 215.863281 2.433594 213.980469 C 2.5 212.03125 4.46875 211.847656 5.839844 211.289062 C 7.652344 210.542969 7.957031 209.40625 7.09375 207.78125 C 6.414062 206.542969 5.738281 205.308594 5.027344 204.105469 C 0.433594 196.328125 0.503906 188.3125 3.804688 180.148438 C 5.042969 177.0625 6.484375 174.082031 8.3125 171.320312 C 9.058594 170.203125 9.160156 169.335938 8.144531 168.40625 C 7.738281 168.03125 7.433594 167.542969 7.09375 167.082031 C 4.265625 163.238281 5.570312 159.410156 10.195312 158.15625 C 13.667969 157.222656 17.277344 156.953125 20.832031 156.460938 C 32.863281 154.800781 44.976562 154.207031 57.089844 153.582031 C 59.125 153.480469 60.921875 152.664062 62.734375 151.953125 C 79.523438 145.3125 96.601562 139.652344 114.1875 135.484375 C 128.285156 132.148438 142.433594 131.234375 156.816406 132.589844 C 168.117188 133.65625 179.417969 134.671875 190.378906 137.824219 C 200.511719 140.738281 209.863281 145.550781 219.371094 149.988281 C 228.941406 154.460938 238.363281 159.257812 247.628906 164.324219 C 248.613281 164.863281 249.578125 165 250.664062 164.964844 C 263.371094 164.609375 276.078125 164.355469 288.765625 164.914062 C 307.300781 165.730469 325.53125 168.234375 342.796875 175.539062 C 352.066406 179.46875 360.6875 184.484375 368.246094 191.210938 C 369.5 192.328125 370.753906 193.496094 371.886719 194.75 C 374.058594 197.15625 374.648438 199.953125 373.394531 203.003906 C 372.566406 205.019531 371.582031 206.96875 370.703125 208.949219 C 368.550781 213.746094 367.890625 218.335938 371.886719 222.691406 C 373.699219 224.671875 373.089844 226.757812 370.566406 228.28125 C 367.617188 230.042969 364.28125 230.722656 360.976562 231.398438 C 353.285156 232.992188 345.472656 233.515625 337.648438 233.90625 C 331.308594 234.226562 324.957031 234.3125 318.601562 234.464844 C 317.144531 234.5 315.890625 234.820312 314.671875 235.683594 C 312.488281 237.242188 309.960938 238.191406 307.472656 239.414062 Z M 197.074219 167.203125 C 199.5625 171.320312 200.394531 175.589844 201.207031 179.859375 C 201.425781 180.992188 201.917969 181.503906 202.953125 181.890625 C 209.914062 184.46875 214.929688 189.175781 217.894531 196.003906 C 220.285156 201.511719 221.996094 207.253906 223.722656 212.980469 C 224.027344 214.03125 224.433594 214.507812 225.570312 214.507812 C 229.738281 214.507812 233.90625 214.558594 238.058594 214.691406 C 239.328125 214.726562 239.597656 214.234375 239.546875 213.082031 C 239.464844 211.1875 239.597656 209.289062 239.835938 207.390625 C 241.597656 193.53125 248.984375 184.011719 262.167969 179.535156 C 275.210938 175.097656 286.921875 178.300781 296.492188 187.992188 C 305.253906 196.871094 307.488281 208 305.777344 220.082031 C 305.234375 223.910156 303.980469 227.570312 302.574219 231.3125 C 303.117188 231.363281 303.457031 231.414062 303.796875 231.414062 C 312.554688 231.515625 321.296875 231.261719 330.039062 230.875 C 336.019531 230.621094 342 230.078125 347.949219 229.214844 C 348.761719 229.09375 350.167969 229.296875 349.777344 227.621094 C 349.472656 226.316406 350.066406 224.519531 347.644531 224.554688 C 344.898438 224.585938 342.136719 224.382812 339.390625 224.214844 C 337.003906 224.0625 334.632812 223.773438 332.429688 222.65625 C 329.734375 221.285156 328.972656 219.757812 329.496094 216.828125 C 329.851562 214.8125 330.515625 212.878906 331.207031 210.964844 C 333.394531 204.832031 337.816406 201.984375 344.21875 201.75 C 350.640625 201.511719 357.0625 201.78125 363.484375 201.816406 C 364.179688 201.816406 365.007812 201.648438 365.550781 202.460938 C 364.585938 202.882812 363.601562 202.96875 362.621094 203.035156 C 356.996094 203.410156 351.355469 203.628906 345.746094 204.289062 C 339.171875 205.070312 332.445312 212.238281 332.277344 218.84375 C 332.257812 219.777344 332.765625 220.234375 333.496094 220.605469 C 334.480469 221.113281 334.785156 220.351562 335.105469 219.777344 C 336.34375 217.574219 337.476562 215.304688 338.75 213.101562 C 340.273438 210.457031 342.492188 208.863281 345.625 208.425781 C 350.792969 207.695312 356.011719 207.355469 361.199219 206.917969 C 367.027344 206.425781 366.027344 207.1875 368.175781 201.292969 C 368.246094 201.089844 368.246094 200.867188 368.3125 200.664062 C 369.042969 198.597656 368.382812 196.9375 366.789062 195.566406 C 364.601562 193.667969 362.5 191.667969 360.214844 189.90625 C 348 180.519531 334.054688 174.894531 319.214844 171.25 C 316.585938 170.609375 313.925781 170.082031 311.265625 169.507812 C 313.539062 170.625 315.875 171.371094 318.179688 172.183594 C 329.75 176.25 340.238281 182.128906 348.949219 190.886719 C 350.304688 192.261719 351.589844 193.734375 352.335938 195.9375 C 351.234375 194.902344 350.40625 194.074219 349.523438 193.3125 C 341.457031 186.3125 332.226562 181.230469 322.414062 177.183594 C 305.878906 170.355469 288.511719 167.949219 270.789062 167.558594 C 248.136719 167.066406 225.484375 166.863281 202.816406 167.203125 C 201.003906 167.238281 199.191406 167.203125 197.054688 167.203125 Z M 19.917969 212.847656 C 20.054688 209.203125 20.242188 206.136719 20.9375 203.121094 C 25.644531 182.398438 50.246094 172.402344 67.476562 184.46875 C 78.203125 191.972656 82.761719 202.96875 83.148438 215.777344 C 83.21875 217.894531 83.828125 218.269531 85.777344 218.300781 C 101.296875 218.574219 116.816406 218.929688 132.351562 219.320312 C 149.699219 219.757812 167.066406 220.417969 184.433594 220.386719 C 187.332031 220.386719 190.210938 220.148438 193.074219 219.675781 C 193.820312 219.554688 194.886719 219.539062 194.835938 218.589844 C 194.785156 217.777344 193.785156 217.605469 193.007812 217.4375 C 188.585938 216.488281 184.078125 216.132812 179.570312 215.878906 C 159.984375 214.777344 140.398438 213.828125 120.8125 212.746094 C 116.035156 212.472656 111.191406 212.574219 106.511719 211.371094 C 94.855469 208.339844 87.742188 195.464844 86.65625 187.839844 C 86.132812 184.195312 87.316406 182.164062 90.605469 180.453125 C 91.925781 179.773438 93.316406 179.28125 94.753906 178.925781 C 98.042969 178.097656 101.398438 177.570312 104.769531 177.367188 C 106.410156 177.265625 106.699219 176.605469 106.769531 175.214844 C 106.988281 170.929688 106.886719 166.59375 107.632812 162.339844 C 107.886719 160.898438 107.664062 160.425781 106.140625 160.136719 C 91.605469 157.445312 76.929688 156.242188 62.175781 156.121094 C 49.671875 156.019531 37.234375 157.207031 24.882812 159.085938 C 20.78125 159.714844 16.683594 160.410156 12.617188 161.253906 C 9.957031 161.816406 9.398438 162.847656 10.652344 164.882812 C 12.5 167.878906 12.753906 171.082031 12.582031 174.453125 C 12.328125 179.773438 10.296875 184.570312 8.175781 189.347656 C 7.449219 190.988281 6.839844 192.667969 7.195312 194.464844 C 8.703125 202.257812 13.9375 207.476562 19.953125 212.863281 Z M 147.074219 198.292969 C 147.074219 198.175781 147.074219 198.054688 147.089844 197.9375 C 147.363281 197.902344 147.632812 197.851562 147.90625 197.851562 C 157.851562 198.105469 167.777344 198.851562 177.707031 199.511719 C 185.3125 200.019531 192.90625 200.699219 200.496094 201.324219 C 201.578125 201.410156 202.238281 201.324219 202.121094 199.9375 C 201.816406 196.277344 201.613281 192.617188 201.375 188.957031 C 201.292969 187.652344 200.546875 186.976562 199.410156 186.464844 C 196.054688 184.957031 192.550781 183.925781 188.972656 183.164062 C 178.265625 180.890625 167.390625 179.945312 156.476562 179.199219 C 141.007812 178.128906 125.609375 178.351562 110.273438 180.960938 C 108.582031 181.25 108.429688 181.707031 108.902344 183.230469 C 111.96875 193.109375 117.761719 201.410156 123.847656 209.578125 C 124.640625 210.660156 125.726562 210.625 126.863281 210.660156 C 150.074219 211.253906 173.285156 211.878906 196.496094 212.472656 C 198.175781 212.523438 200.324219 213.386719 201.394531 212.390625 C 202.5625 211.289062 201.648438 209.035156 201.953125 207.304688 C 202.171875 206.070312 201.648438 205.5625 200.445312 205.359375 C 190.921875 203.800781 181.351562 202.527344 171.777344 201.375 C 163.542969 200.375 155.308594 199.324219 147.074219 198.308594 Z M 200.207031 180.960938 C 199.394531 176.707031 198.597656 172.742188 196.800781 169.015625 C 196.15625 167.675781 195.277344 167.269531 193.800781 167.304688 C 188.585938 167.390625 183.367188 167.371094 178.128906 167.320312 C 155.394531 167.136719 132.722656 166.238281 110.496094 160.882812 C 109.070312 160.542969 108.734375 161.101562 108.664062 162.289062 C 108.429688 165.949219 108.089844 169.609375 107.953125 173.269531 C 107.800781 177.519531 107.175781 176.792969 111.578125 176.824219 C 112.699219 176.824219 113.308594 176.621094 113.5625 175.316406 C 114.324219 171.25 115.425781 170.152344 119.527344 169.777344 C 124.558594 169.320312 128.371094 170.609375 129.011719 174.625 C 129.285156 176.265625 130.113281 176.539062 131.570312 176.503906 C 141.246094 176.234375 150.902344 176.570312 160.578125 176.894531 C 173.742188 177.335938 186.941406 177.742188 200.222656 180.960938 Z M 86.84375 239.71875 L 260.8125 239.71875 C 258.40625 238.191406 256.101562 236.703125 253.984375 234.941406 C 253.304688 234.378906 252.578125 234.414062 251.796875 234.414062 C 201.121094 234.515625 150.445312 234.226562 99.753906 233.636719 C 99.125 233.636719 98.484375 233.515625 97.921875 233.941406 C 94.601562 236.328125 90.824219 237.886719 86.84375 239.734375 Z M 243.15625 229.164062 C 242.988281 227.671875 242.257812 226.65625 240.074219 226.585938 C 232.535156 226.351562 224.996094 225.890625 217.453125 225.503906 C 205.410156 224.894531 193.34375 224.300781 181.300781 223.671875 C 163.40625 222.742188 145.5 221.773438 127.605469 220.84375 C 119.507812 220.417969 111.394531 220.0625 103.292969 219.691406 C 97.09375 219.402344 90.890625 219.132812 84.691406 218.84375 C 83.945312 218.808594 83.148438 218.574219 83.03125 219.808594 C 82.691406 223.316406 81.945312 226.738281 80.710938 230.347656 C 87.519531 230.128906 94.0625 229.925781 100.601562 229.6875 C 101.328125 229.671875 101.988281 229.347656 102.480469 228.839844 C 104.902344 226.351562 107.867188 225.941406 111.207031 226.042969 C 134.128906 226.789062 157.054688 227.398438 179.976562 228.0625 C 192.820312 228.433594 205.644531 228.890625 218.488281 229.144531 C 226.671875 229.316406 234.839844 229.179688 243.125 229.179688 Z M 195.226562 165.933594 C 194.785156 165.320312 194.699219 165.136719 194.546875 165 C 185.6875 156.902344 176.417969 149.328125 166.066406 143.175781 C 159.882812 139.5 153.429688 136.722656 146.175781 136.042969 C 137.296875 135.214844 128.554688 136.164062 119.914062 138.027344 C 103.835938 141.5 88.453125 147.140625 73.152344 153.003906 C 72.8125 153.140625 72.238281 153.054688 72.339844 153.816406 C 79.742188 153.75 87.132812 154.070312 94.449219 155.207031 C 98.125 155.765625 101.785156 156.578125 105.464844 157.171875 C 106.039062 157.257812 107.308594 158.1875 107.34375 156.597656 C 107.429688 153.648438 107.359375 150.699219 107.359375 147.582031 C 100.632812 148.871094 94.09375 150.125 87.570312 151.378906 C 87.570312 151.074219 87.640625 151.003906 87.691406 151.003906 C 101.769531 147.582031 115.847656 144.125 130.148438 141.667969 C 140.90625 139.824219 151.191406 140.824219 160.867188 146.246094 C 169.898438 151.308594 177.996094 157.628906 185.789062 164.375 C 186.566406 165.050781 187.261719 165.933594 188.464844 165.933594 C 190.566406 165.933594 192.667969 165.933594 195.207031 165.933594 Z M 122.777344 210.066406 C 116.527344 201.445312 110.527344 192.957031 107.632812 182.722656 C 107.34375 181.722656 106.785156 181.570312 105.921875 181.890625 C 103.667969 182.707031 101.398438 183.433594 99.378906 184.753906 C 96.433594 186.667969 95.789062 188.347656 96.566406 191.71875 C 99.53125 204.527344 109.394531 211.492188 122.777344 210.050781 Z M 272.910156 233.28125 C 285.074219 233.484375 295.578125 223.148438 295.78125 210.8125 C 295.984375 198.054688 285.902344 187.144531 273.753906 186.992188 C 261.167969 186.839844 250.96875 197.054688 250.78125 210.015625 C 250.59375 222.808594 260.355469 233.074219 272.890625 233.28125 Z M 73.476562 210.882812 C 73.59375 209.558594 73.289062 208.035156 73.019531 206.507812 C 70.746094 193.988281 58.804688 185.789062 47.027344 188.652344 C 37.929688 190.855469 31.660156 198.480469 30.457031 208.8125 C 28.933594 221.773438 39.453125 233.636719 52.363281 233.515625 C 63.800781 233.414062 73.441406 223.199219 73.492188 210.882812 Z M 232.09375 215.761719 L 232.09375 215.710938 C 230.042969 215.710938 228.011719 215.742188 225.960938 215.710938 C 224.976562 215.691406 224.484375 215.828125 224.910156 216.996094 C 225.519531 218.726562 225.976562 220.488281 226.535156 222.234375 C 226.722656 222.808594 226.859375 223.367188 227.738281 223.417969 C 231.890625 223.640625 236.042969 223.925781 240.175781 224.25 C 241.191406 224.332031 241.378906 223.976562 241.175781 223.0625 C 240.734375 221.148438 240.226562 219.234375 239.9375 217.300781 C 239.75 216.015625 239.191406 215.691406 237.988281 215.742188 C 236.023438 215.828125 234.042969 215.761719 232.058594 215.761719 Z M 152.191406 135.453125 C 156.070312 136.671875 159.410156 137.910156 162.507812 139.621094 C 164.558594 140.738281 166.507812 141.195312 168.878906 140.839844 C 173.84375 140.109375 178.875 140.027344 184.195312 139.890625 C 179.738281 137.925781 158.085938 134.910156 152.191406 135.46875 Z M 212.269531 202.730469 C 211 196.921875 205.832031 189.53125 202.292969 188.398438 C 203.003906 192.175781 203.085938 195.972656 203.207031 199.785156 C 203.222656 200.511719 203.019531 201.496094 204.085938 201.664062 C 206.78125 202.070312 209.492188 202.394531 212.253906 202.75 Z M 217.21875 213.609375 C 217.097656 212.320312 216.355469 211.644531 215.640625 211.015625 C 212.304688 208.070312 208.070312 207.222656 203.953125 206.101562 C 203.730469 206.050781 203.410156 206.136719 203.222656 206.289062 C 202.984375 206.457031 203.035156 212.320312 203.238281 212.523438 C 203.648438 212.914062 204.171875 212.761719 204.644531 212.796875 C 206.542969 212.914062 208.425781 212.980469 210.320312 213.101562 C 212.59375 213.253906 214.878906 213.4375 217.21875 213.609375 Z M 351.8125 224.199219 C 353.335938 228.332031 353.828125 228.671875 357.605469 227.890625 C 360.351562 227.332031 363.0625 226.621094 365.773438 225.941406 C 366.363281 225.789062 367.414062 225.925781 367.261719 224.945312 C 367.144531 224.128906 366.230469 224.179688 365.519531 224.179688 C 361.027344 224.179688 356.539062 224.179688 351.8125 224.179688 Z M 365.550781 222.148438 C 365.332031 220.675781 364.621094 220.367188 363.550781 220.386719 C 359.332031 220.46875 355.113281 220.503906 350.894531 220.605469 C 350.355469 220.605469 349.457031 220.265625 349.320312 221.097656 C 349.21875 221.707031 349.929688 222.148438 350.371094 222.570312 C 350.777344 222.960938 351.269531 222.945312 351.761719 222.910156 C 356.316406 222.65625 360.875 222.402344 365.550781 222.132812 Z M 114.628906 175.554688 C 118.101562 170.84375 125.386719 171.507812 127.980469 175.726562 C 127.640625 172.4375 125.964844 170.964844 122.390625 170.792969 C 117.085938 170.539062 115.425781 171.488281 114.628906 175.554688 Z M 114.628906 175.554688 " fill-opacity="1" fill-rule="nonzero"/></g><path fill="#040327" d="M 336.089844 194.007812 C 328.617188 194.140625 322.042969 191.464844 315.808594 187.6875 C 311.046875 184.804688 306.472656 181.65625 301.964844 178.386719 C 301.320312 177.910156 300.304688 177.453125 300.695312 176.453125 C 301.035156 175.589844 302.03125 175.859375 302.777344 175.878906 C 317.078125 176.265625 329.648438 181.316406 340.746094 190.210938 C 341.664062 190.9375 343.304688 191.601562 342.710938 193.089844 C 342.203125 194.378906 340.628906 193.9375 339.476562 193.988281 C 338.359375 194.058594 337.222656 193.988281 336.089844 193.988281 Z M 340.816406 192.140625 C 338.953125 190.582031 337.121094 189.753906 334.988281 189.464844 C 329.007812 188.667969 323.3125 187.398438 318.601562 183.042969 C 314.433594 179.199219 309.25 177.316406 303.03125 177.488281 C 314.824219 184.804688 325.566406 193.648438 340.832031 192.140625 Z M 340.816406 192.140625 " fill-opacity="1" fill-rule="nonzero"/><path fill="#040327" d="M 228.46875 186.976562 C 232.90625 186.976562 237.734375 186.890625 242.546875 187.027344 C 244.511719 187.078125 245.953125 186.585938 247.445312 185.230469 C 265.300781 169.132812 292.628906 173.335938 304.335938 193.90625 C 307.386719 199.273438 308.929688 206 308.335938 211.914062 C 307.539062 209.492188 307.742188 207.238281 307.371094 205.085938 C 304.386719 188.074219 288.664062 175.46875 271.367188 176.25 C 262.015625 176.671875 254 180.230469 247.238281 186.617188 C 245.953125 187.839844 244.683594 188.382812 242.917969 188.230469 C 238.699219 187.855469 234.480469 187.636719 230.261719 187.332031 C 229.519531 187.28125 228.773438 187.058594 228.449219 186.992188 Z M 228.46875 186.976562 " fill-opacity="1" fill-rule="nonzero"/><path fill="#040327" d="M 15.414062 164.324219 C 38.625 158.699219 62.039062 157.597656 85.675781 161.542969 C 84.4375 163.1875 82.675781 163.070312 81.082031 163.203125 C 75.507812 163.695312 69.949219 163.203125 64.410156 162.660156 C 54.972656 161.714844 45.535156 161.882812 36.097656 162.628906 C 29.710938 163.136719 23.339844 163.8125 17.003906 164.863281 C 16.496094 164.949219 15.953125 164.863281 15.429688 164.863281 C 15.429688 164.679688 15.429688 164.492188 15.429688 164.304688 Z M 15.414062 164.324219 " fill-opacity="1" fill-rule="nonzero"/><path fill="#040327" d="M 24.070312 191.429688 C 30.796875 181.484375 40.367188 176.65625 52.179688 177.03125 C 65.207031 177.453125 77.082031 185.90625 81.371094 197.039062 C 74.984375 186.941406 66.96875 179.046875 54.328125 177.996094 C 41.84375 176.960938 31.746094 181.554688 24.070312 191.449219 Z M 24.070312 191.429688 " fill-opacity="1" fill-rule="nonzero"/><path fill="#040327" d="M 253.457031 210.507812 C 253.457031 198.816406 262.863281 188.820312 273.839844 188.789062 C 284.566406 188.753906 293.96875 198.664062 293.96875 209.984375 C 293.96875 221.859375 284.464844 231.820312 273.179688 231.71875 C 262.402344 231.636719 253.441406 221.996094 253.457031 210.492188 Z M 277.3125 210.8125 C 277.3125 208.746094 275.449219 206.898438 273.417969 206.933594 C 271.789062 206.96875 269.996094 208.914062 270.011719 210.609375 C 270.046875 212.644531 271.621094 214.253906 273.585938 214.234375 C 275.738281 214.234375 277.296875 212.777344 277.3125 210.796875 Z M 287.613281 208.730469 C 282.886719 212.710938 282.378906 215.066406 285.15625 218.320312 C 285.9375 215.304688 286.699219 212.289062 287.613281 208.730469 Z M 276.515625 216.066406 C 276.449219 216.488281 276.3125 216.742188 276.382812 216.894531 C 278.023438 220.574219 280.480469 223.757812 282.617188 227.128906 C 282.820312 227.46875 283.109375 227.65625 283.464844 227.347656 C 283.800781 227.0625 283.667969 226.707031 283.464844 226.402344 C 282.515625 224.925781 281.617188 223.417969 280.566406 222.011719 C 279.175781 220.148438 278.347656 217.863281 276.5 216.082031 Z M 279.144531 208.679688 C 279.871094 209.339844 280.226562 209.152344 280.515625 209.015625 C 283.9375 207.558594 287.359375 206.085938 290.78125 204.59375 C 291.039062 204.492188 291.324219 204.339844 291.460938 204.121094 C 291.578125 203.933594 291.511719 203.59375 291.460938 203.359375 C 291.460938 203.289062 291.089844 203.238281 290.953125 203.308594 C 287.089844 205.050781 283.226562 206.816406 279.160156 208.679688 Z M 274.382812 204.613281 C 274.652344 200.191406 274.804688 195.769531 273.824219 191.398438 C 273.214844 195.835938 273.824219 200.222656 274.382812 204.613281 Z M 285.15625 226.113281 C 283.3125 222.132812 281.125 218.351562 278.109375 215.101562 C 279.871094 219.132812 282.5 222.621094 285.15625 226.113281 Z M 261.269531 225.65625 C 261.488281 225.808594 261.710938 225.960938 261.914062 226.09375 C 264.675781 222.773438 266.925781 219.132812 269.046875 215.386719 C 268.84375 215.253906 268.640625 215.117188 268.453125 214.980469 C 266.0625 218.539062 263.65625 222.097656 261.269531 225.65625 Z M 257 204.78125 C 256.574219 204.796875 256.167969 204.695312 256.066406 205.171875 C 255.984375 205.628906 256.40625 205.746094 256.695312 205.867188 C 259.894531 207.070312 263.097656 208.238281 266.300781 209.390625 C 266.640625 209.507812 267.148438 209.863281 267.367188 209.269531 C 267.589844 208.710938 267.082031 208.59375 266.691406 208.441406 C 265.0625 207.832031 263.421875 207.222656 261.792969 206.59375 C 260.167969 205.984375 258.542969 205.339844 256.980469 204.746094 Z M 263.183594 226.976562 C 264.351562 226.976562 264.707031 226.214844 265.132812 225.570312 C 266.589844 223.332031 268.078125 221.132812 269.402344 218.828125 C 269.824219 218.082031 271.25 217.097656 270.433594 216.558594 C 269.367188 215.84375 269.148438 217.605469 268.707031 218.25 C 266.757812 221.097656 265.011719 224.0625 263.183594 226.976562 Z M 268.722656 207.339844 C 264.675781 205.308594 260.8125 204.359375 257.203125 202.78125 C 256.914062 202.648438 256.609375 202.699219 256.523438 203.019531 C 256.390625 203.613281 256.914062 203.679688 257.269531 203.816406 C 259.949219 204.847656 262.625 205.882812 265.335938 206.867188 C 266.214844 207.1875 267.046875 207.796875 268.722656 207.339844 Z M 290.917969 201.851562 C 290.800781 201.613281 290.699219 201.394531 290.578125 201.15625 C 286.546875 202.730469 282.632812 204.5625 278.90625 206.796875 C 278.992188 206.984375 279.09375 207.171875 279.175781 207.355469 C 283.089844 205.527344 287.003906 203.679688 290.902344 201.851562 Z M 272.382812 205.085938 L 272.382812 191.449219 C 272.113281 191.449219 271.839844 191.480469 271.570312 191.5 C 271.839844 195.851562 271.433594 200.242188 272.382812 205.085938 Z M 272.382812 205.085938 " fill-opacity="1" fill-rule="nonzero"/><path fill="#040327" d="M 33.152344 210.898438 C 33.4375 204.441406 35.609375 198.800781 40.589844 194.480469 C 47.722656 188.28125 56.378906 188.175781 63.734375 194.089844 C 73.984375 202.359375 74.660156 218.21875 64.75 226.859375 C 51.875 238.109375 37.945312 229.164062 34.183594 217.777344 C 33.457031 215.558594 33.066406 213.253906 33.152344 210.882812 Z M 51.601562 214.914062 C 53.464844 214.949219 55.195312 213.320312 55.226562 211.492188 C 55.261719 209.558594 53.585938 207.78125 51.667969 207.710938 C 49.855469 207.644531 48.230469 209.289062 48.164062 211.238281 C 48.113281 212.929688 49.941406 214.878906 51.601562 214.914062 Z M 54.992188 216.710938 C 54.246094 216.996094 54.023438 217.132812 54.398438 217.707031 C 56.449219 220.894531 58.414062 224.128906 60.429688 227.332031 C 60.632812 227.65625 60.851562 228.214844 61.359375 227.875 C 61.851562 227.550781 61.460938 227.128906 61.257812 226.789062 C 59.378906 223.742188 57.5 220.691406 55.617188 217.65625 C 55.398438 217.300781 55.160156 216.964844 54.992188 216.710938 Z M 57.632812 209.730469 C 57.855469 209.78125 58.074219 209.914062 58.242188 209.863281 C 61.835938 208.492188 65.410156 207.085938 69.003906 205.695312 C 69.425781 205.527344 69.816406 205.273438 69.492188 204.78125 C 69.171875 204.289062 68.730469 204.664062 68.375 204.816406 C 65.394531 206.035156 62.410156 207.253906 59.445312 208.507812 C 58.785156 208.78125 57.871094 208.746094 57.632812 209.746094 Z M 62.734375 226.941406 C 62.902344 226.824219 63.054688 226.722656 63.226562 226.605469 C 62.613281 224.570312 57.734375 217.015625 55.855469 216.132812 Z M 52.296875 192.480469 C 51.703125 196.820312 52.09375 201.121094 52.804688 205.410156 C 53.28125 201.070312 52.855469 196.769531 52.296875 192.480469 Z M 35.304688 205.984375 C 38.640625 207.171875 41.792969 208.304688 44.960938 209.355469 C 45.332031 209.476562 45.992188 210.253906 46.332031 209.304688 C 46.621094 208.476562 45.789062 208.441406 45.332031 208.273438 C 42.691406 207.375 40.046875 206.476562 37.386719 205.664062 C 36.84375 205.492188 36.183594 205.171875 35.320312 205.984375 Z M 42.199219 227.382812 C 44.945312 224.824219 48.855469 218.066406 48.5 216.488281 C 46.332031 219.996094 44.046875 223.199219 42.199219 227.382812 Z M 50.433594 205.308594 C 50.550781 205.308594 50.671875 205.289062 50.773438 205.273438 L 50.773438 192.3125 C 50.652344 192.3125 50.535156 192.34375 50.433594 192.363281 L 50.433594 205.324219 Z M 68.867188 203.085938 C 68.765625 202.851562 68.664062 202.597656 68.5625 202.359375 C 64.734375 204.019531 60.921875 205.664062 57.089844 207.324219 C 57.175781 207.527344 57.261719 207.710938 57.34375 207.917969 C 61.308594 206.613281 65.15625 204.984375 68.867188 203.105469 Z M 46.789062 207.457031 C 42.488281 204.898438 37.183594 203.359375 35.828125 204.171875 C 39.605469 205.1875 43.027344 206.898438 46.789062 207.457031 Z M 47.316406 216.097656 C 46.011719 216.183594 45.808594 217.167969 45.332031 217.878906 C 43.875 220.113281 42.503906 222.386719 41.097656 224.65625 C 40.878906 225.011719 40.625 225.453125 41.03125 225.789062 C 41.386719 226.078125 41.640625 225.738281 41.824219 225.417969 C 43.65625 222.316406 45.484375 219.199219 47.316406 216.097656 Z M 47.316406 216.097656 " fill-opacity="1" fill-rule="nonzero"/></svg>